<svg width="29" height="29" viewBox="0 0 29 29" fill="none" xmlns="http://www.w3.org/2000/svg">
<path fill-rule="evenodd" clip-rule="evenodd" d="M14.4466 0.404022C14.9818 0.404022 15.495 0.616623 15.8735 0.995054C16.2519 1.37349 16.4645 1.88675 16.4645 2.42193V12.5115H26.5541C27.0892 12.5115 27.6025 12.7241 27.9809 13.1025C28.3594 13.4809 28.572 13.9942 28.572 14.5294C28.572 15.0646 28.3594 15.5778 27.9809 15.9563C27.6025 16.3347 27.0892 16.5473 26.5541 16.5473H16.4645V26.6368C16.4645 27.172 16.2519 27.6853 15.8735 28.0637C15.495 28.4422 14.9818 28.6548 14.4466 28.6548C13.9114 28.6548 13.3981 28.4422 13.0197 28.0637C12.6413 27.6853 12.4287 27.172 12.4287 26.6368V16.5473H2.33914C1.80395 16.5473 1.29069 16.3347 0.91226 15.9563C0.533829 15.5778 0.321228 15.0646 0.321228 14.5294C0.321228 13.9942 0.533829 13.4809 0.91226 13.1025C1.29069 12.7241 1.80395 12.5115 2.33914 12.5115H12.4287V2.42193C12.4287 1.88675 12.6413 1.37349 13.0197 0.995054C13.3981 0.616623 13.9114 0.404022 14.4466 0.404022Z" fill="white"/>
</svg>
