<svg width="22" height="22" viewBox="0 0 22 22" fill="none" xmlns="http://www.w3.org/2000/svg">
<path d="M11 2.75V3.66667M11 18.3333V19.25M19.25 11H18.3333M3.66667 11H2.75M16.8337 16.8337L16.1856 16.1856M5.81442 5.81442L5.16633 5.16633M16.8337 5.16633L16.1856 5.81442M5.81442 16.1856L5.16633 16.8337M14.6667 11C14.6667 11.9725 14.2804 12.9051 13.5927 13.5927C12.9051 14.2804 11.9725 14.6667 11 14.6667C10.0275 14.6667 9.09491 14.2804 8.40728 13.5927C7.71964 12.9051 7.33333 11.9725 7.33333 11C7.33333 10.0275 7.71964 9.09491 8.40728 8.40728C9.09491 7.71964 10.0275 7.33333 11 7.33333C11.9725 7.33333 12.9051 7.71964 13.5927 8.40728C14.2804 9.09491 14.6667 10.0275 14.6667 11Z" stroke="white" stroke-width="2" stroke-linecap="round" stroke-linejoin="round"/>
</svg>
