<svg width="22" height="21" viewBox="0 0 22 21" fill="none" xmlns="http://www.w3.org/2000/svg">
<path d="M14.6666 6.125C14.6666 7.05326 14.2803 7.9435 13.5927 8.59987C12.9051 9.25625 11.9724 9.625 11 9.625C10.0275 9.625 9.09489 9.25625 8.40725 8.59987C7.71962 7.9435 7.33331 7.05326 7.33331 6.125C7.33331 5.19674 7.71962 4.3065 8.40725 3.65013C9.09489 2.99375 10.0275 2.625 11 2.625C11.9724 2.625 12.9051 2.99375 13.5927 3.65013C14.2803 4.3065 14.6666 5.19674 14.6666 6.125ZM11 12.25C9.29817 12.25 7.66607 12.8953 6.46271 14.044C5.25935 15.1926 4.58331 16.7505 4.58331 18.375H17.4166C17.4166 16.7505 16.7406 15.1926 15.5372 14.044C14.3339 12.8953 12.7018 12.25 11 12.25Z" stroke="white" stroke-width="2" stroke-linecap="round" stroke-linejoin="round"/>
</svg>
