<svg width="15" height="15" viewBox="0 0 15 15" fill="none" xmlns="http://www.w3.org/2000/svg">
<path fill-rule="evenodd" clip-rule="evenodd" d="M3.21974 3.21975C3.36039 3.07915 3.55112 3.00016 3.74999 3.00016C3.94887 3.00016 4.1396 3.07915 4.28024 3.21975L7.49999 6.4395L10.7197 3.21975C10.7889 3.14812 10.8717 3.09098 10.9632 3.05167C11.0547 3.01237 11.1531 2.99168 11.2527 2.99081C11.3523 2.98995 11.451 3.00892 11.5432 3.04663C11.6354 3.08434 11.7191 3.14003 11.7895 3.21045C11.86 3.28087 11.9156 3.36461 11.9534 3.45678C11.9911 3.54896 12.01 3.64772 12.0092 3.7473C12.0083 3.84689 11.9876 3.9453 11.9483 4.0368C11.909 4.12831 11.8519 4.21106 11.7802 4.28025L8.56049 7.5L11.7802 10.7197C11.9169 10.8612 11.9925 11.0507 11.9907 11.2473C11.989 11.4439 11.9102 11.6321 11.7711 11.7711C11.632 11.9102 11.4439 11.989 11.2473 11.9908C11.0506 11.9925 10.8612 11.9169 10.7197 11.7802L7.49999 8.5605L4.28024 11.7802C4.13879 11.9169 3.94934 11.9925 3.75269 11.9908C3.55604 11.989 3.36793 11.9102 3.22888 11.7711C3.08982 11.6321 3.01095 11.4439 3.00924 11.2473C3.00753 11.0507 3.08312 10.8612 3.21974 10.7197L6.43949 7.5L3.21974 4.28025C3.07914 4.1396 3.00015 3.94887 3.00015 3.75C3.00015 3.55113 3.07914 3.3604 3.21974 3.21975Z" fill="#2C3C48"/>
</svg>
